<?xml version="1.0" encoding="UTF-8" standalone="no"?>
<!DOCTYPE svg PUBLIC "-//W3C//DTD SVG 1.1//EN"
 "http://www.w3.org/Graphics/SVG/1.1/DTD/svg11.dtd">
<!-- Generated by graphviz version 2.28.0 (20121123.1724)
 -->
<!-- Title: _anonymous_0 Pages: 1 -->
<svg width="500pt" height="441pt"
 viewBox="0.00 0.00 499.66 440.71" xmlns="http://www.w3.org/2000/svg" xmlns:xlink="http://www.w3.org/1999/xlink">
<g id="graph1" class="graph" transform="scale(1 1) rotate(0) translate(4 436.712)">
<title>_anonymous_0</title>
<polygon fill="white" stroke="white" points="-4,5 -4,-436.712 496.665,-436.712 496.665,5 -4,5"/>
<!-- Aoi -->
<g id="node2" class="node"><title>Aoi</title>
<ellipse fill="none" stroke="black" cx="151.015" cy="-128.917" rx="27" ry="18"/>
<text text-anchor="middle" x="151.015" y="-125.217" font-family="Times,serif" font-size="14.00">Aoi</text>
</g>
<!-- Sumire -->
<g id="node4" class="node"><title>Sumire</title>
<ellipse fill="none" stroke="black" cx="151.015" cy="-268.017" rx="38.0212" ry="18"/>
<text text-anchor="middle" x="151.015" y="-264.317" font-family="Times,serif" font-size="14.00">Sumire</text>
</g>
<!-- Aoi&#45;&#45;Sumire -->
<g id="edge7" class="edge"><title>Aoi&#45;&#45;Sumire</title>
<path fill="none" stroke="purple" stroke-width="2" d="M151.015,-147.102C151.015,-173.76 151.015,-223.167 151.015,-249.828"/>
</g>
<!-- Rie -->
<g id="node8" class="node"><title>Rie</title>
<ellipse fill="none" stroke="#808080" cx="27" cy="-130.641" rx="27" ry="18"/>
<text text-anchor="middle" x="27" y="-126.941" font-family="Times,serif" font-size="14.00" fill="#808080">Rie</text>
</g>
<!-- Aoi&#45;&#45;Rie -->
<g id="edge3" class="edge"><title>Aoi&#45;&#45;Rie</title>
<path fill="none" stroke="deeppink" stroke-width="2" d="M123.8,-129.295C103.122,-129.583 74.8138,-129.976 54.1522,-130.264"/>
</g>
<!-- Setsuna -->
<g id="node10" class="node"><title>Setsuna</title>
<ellipse fill="none" stroke="#808080" cx="104.198" cy="-18" rx="39.4691" ry="18"/>
<text text-anchor="middle" x="104.198" y="-14.3" font-family="Times,serif" font-size="14.00" fill="#808080">Setsuna</text>
</g>
<!-- Aoi&#45;&#45;Setsuna -->
<g id="edge5" class="edge"><title>Aoi&#45;&#45;Setsuna</title>
<path fill="none" stroke="red" stroke-width="2" d="M143.7,-111.586C135.008,-90.9921 120.577,-56.8032 111.772,-35.9439"/>
</g>
<!-- Hikaru -->
<g id="node3" class="node"><title>Hikaru</title>
<ellipse fill="none" stroke="black" cx="283.308" cy="-311.002" rx="37.0701" ry="18"/>
<text text-anchor="middle" x="283.308" y="-307.302" font-family="Times,serif" font-size="14.00">Hikaru</text>
</g>
<!-- Yuna -->
<g id="node6" class="node"><title>Yuna</title>
<ellipse fill="none" stroke="black" cx="283.308" cy="-85.9321" rx="30.3206" ry="18"/>
<text text-anchor="middle" x="283.308" y="-82.2321" font-family="Times,serif" font-size="14.00">Yuna</text>
</g>
<!-- Hikaru&#45;&#45;Yuna -->
<g id="edge11" class="edge"><title>Hikaru&#45;&#45;Yuna</title>
<path fill="none" stroke="deeppink" stroke-width="2" d="M283.308,-292.964C283.308,-250.822 283.308,-146.283 283.308,-104.056"/>
</g>
<!-- Ayumi -->
<g id="node13" class="node"><title>Ayumi</title>
<ellipse fill="none" stroke="#808080" cx="317.005" cy="-414.712" rx="37.0701" ry="18"/>
<text text-anchor="middle" x="317.005" y="-411.012" font-family="Times,serif" font-size="14.00" fill="#808080">Ayumi</text>
</g>
<!-- Hikaru&#45;&#45;Ayumi -->
<g id="edge9" class="edge"><title>Hikaru&#45;&#45;Ayumi</title>
<path fill="none" stroke="deeppink" stroke-width="2" d="M289.178,-329.067C295.363,-348.102 305.044,-377.897 311.203,-396.854"/>
</g>
<!-- Sumire&#45;&#45;Hikaru -->
<g id="edge13" class="edge"><title>Sumire&#45;&#45;Hikaru</title>
<path fill="none" stroke="deeppink" stroke-width="2" d="M182.703,-278.313C203.8,-285.168 231.387,-294.132 252.336,-300.938"/>
</g>
<!-- Kazuo -->
<g id="node17" class="node"><title>Kazuo</title>
<ellipse fill="none" stroke="#808080" cx="64.3722" cy="-330.967" rx="35.1455" ry="18"/>
<text text-anchor="middle" x="64.3722" y="-327.267" font-family="Times,serif" font-size="14.00" fill="#808080">Kazuo</text>
</g>
<!-- Sumire&#45;&#45;Kazuo -->
<g id="edge15" class="edge"><title>Sumire&#45;&#45;Kazuo</title>
<path fill="none" stroke="deeppink" stroke-width="2" d="M130.041,-283.256C116.319,-293.226 98.4765,-306.189 84.8539,-316.087"/>
</g>
<!-- Yui -->
<g id="node5" class="node"><title>Yui</title>
<ellipse fill="none" stroke="black" cx="365.07" cy="-198.467" rx="27" ry="18"/>
<text text-anchor="middle" x="365.07" y="-194.767" font-family="Times,serif" font-size="14.00">Yui</text>
</g>
<!-- Yui&#45;&#45;Hikaru -->
<g id="edge19" class="edge"><title>Yui&#45;&#45;Hikaru</title>
<path fill="none" stroke="red" stroke-width="2" d="M353.005,-215.072C337.636,-236.226 311.21,-272.599 295.69,-293.96"/>
</g>
<!-- Ami -->
<g id="node19" class="node"><title>Ami</title>
<ellipse fill="none" stroke="#808080" cx="464.367" cy="-198.467" rx="26.949" ry="18"/>
<text text-anchor="middle" x="464.367" y="-194.767" font-family="Times,serif" font-size="14.00" fill="#808080">Ami</text>
</g>
<!-- Yui&#45;&#45;Ami -->
<g id="edge17" class="edge"><title>Yui&#45;&#45;Ami</title>
<path fill="none" stroke="deeppink" stroke-width="2" d="M392.203,-198.467C406.099,-198.467 422.981,-198.467 436.921,-198.467"/>
</g>
<!-- Yuna&#45;&#45;Aoi -->
<g id="edge21" class="edge"><title>Yuna&#45;&#45;Aoi</title>
<path fill="none" stroke="purple" stroke-width="2" d="M256.537,-94.6306C232.83,-102.334 198.513,-113.484 175.516,-120.956"/>
</g>
<!-- Yuna&#45;&#45;Yui -->
<g id="edge23" class="edge"><title>Yuna&#45;&#45;Yui</title>
<path fill="none" stroke="deeppink" stroke-width="2" d="M295.372,-102.537C310.92,-123.936 337.78,-160.907 353.222,-182.16"/>
</g>
</g>
</svg>
