<?xml version="1.0" encoding="UTF-8" standalone="no"?>
<!DOCTYPE svg PUBLIC "-//W3C//DTD SVG 1.1//EN"
 "http://www.w3.org/Graphics/SVG/1.1/DTD/svg11.dtd">
<!-- Generated by graphviz version 2.28.0 (20130114.0258)
 -->
<!-- Title: _anonymous_0 Pages: 1 -->
<svg width="655pt" height="501pt"
 viewBox="0.00 0.00 655.18 501.09" xmlns="http://www.w3.org/2000/svg" xmlns:xlink="http://www.w3.org/1999/xlink">
<g id="graph1" class="graph" transform="scale(1 1) rotate(0) translate(4 497.091)">
<title>_anonymous_0</title>
<polygon fill="white" stroke="white" points="-4,5 -4,-497.091 652.182,-497.091 652.182,5 -4,5"/>
<!-- Aoi -->
<g id="node2" class="node"><title>Aoi</title>
<ellipse fill="none" stroke="black" cx="286.566" cy="-140.437" rx="27" ry="18"/>
<text text-anchor="middle" x="286.566" y="-134.837" font-family="Times,serif" font-size="14.00">Aoi</text>
</g>
<!-- Sumire -->
<g id="node5" class="node"><title>Sumire</title>
<ellipse fill="none" stroke="black" cx="429.676" cy="-140.437" rx="38.3993" ry="18"/>
<text text-anchor="middle" x="429.676" y="-134.837" font-family="Times,serif" font-size="14.00">Sumire</text>
</g>
<!-- Aoi&#45;&#45;Sumire -->
<g id="edge7" class="edge"><title>Aoi&#45;&#45;Sumire</title>
<path fill="none" stroke="purple" stroke-width="2" d="M313.821,-140.437C335.555,-140.437 366.279,-140.437 390.627,-140.437"/>
</g>
<!-- Rie -->
<g id="node9" class="node"><title>Rie</title>
<ellipse fill="none" stroke="#808080" cx="170.032" cy="-90.4348" rx="27" ry="18"/>
<text text-anchor="middle" x="170.032" y="-84.8348" font-family="Times,serif" font-size="14.00" fill="#808080">Rie</text>
</g>
<!-- Aoi&#45;&#45;Rie -->
<g id="edge3" class="edge"><title>Aoi&#45;&#45;Rie</title>
<path fill="none" stroke="deeppink" stroke-width="2" d="M263.821,-130.677C243.42,-121.924 213.624,-109.139 193.119,-100.341"/>
</g>
<!-- Setsuna -->
<g id="node11" class="node"><title>Setsuna</title>
<ellipse fill="none" stroke="#808080" cx="287.892" cy="-18" rx="41.1166" ry="18"/>
<text text-anchor="middle" x="287.892" y="-12.4" font-family="Times,serif" font-size="14.00" fill="#808080">Setsuna</text>
</g>
<!-- Aoi&#45;&#45;Setsuna -->
<g id="edge5" class="edge"><title>Aoi&#45;&#45;Setsuna</title>
<path fill="none" stroke="red" stroke-width="2" d="M286.762,-122.371C287.013,-99.2222 287.445,-59.3245 287.696,-36.1401"/>
</g>
<!-- Hikaru -->
<g id="node3" class="node"><title>Hikaru</title>
<ellipse fill="none" stroke="black" cx="501.231" cy="-264.374" rx="37.2809" ry="18"/>
<text text-anchor="middle" x="501.231" y="-258.774" font-family="Times,serif" font-size="14.00">Hikaru</text>
</g>
<!-- Yuna -->
<g id="node7" class="node"><title>Yuna</title>
<ellipse fill="none" stroke="black" cx="286.566" cy="-388.311" rx="30.3269" ry="18"/>
<text text-anchor="middle" x="286.566" y="-382.711" font-family="Times,serif" font-size="14.00">Yuna</text>
</g>
<!-- Hikaru&#45;&#45;Yuna -->
<g id="edge11" class="edge"><title>Hikaru&#45;&#45;Yuna</title>
<path fill="none" stroke="deeppink" stroke-width="2" d="M477.024,-278.35C435.028,-302.596 349.287,-352.099 308.747,-375.505"/>
</g>
<!-- Ayumi -->
<g id="node14" class="node"><title>Ayumi</title>
<ellipse fill="none" stroke="#808080" cx="610.207" cy="-264.374" rx="36.4634" ry="18"/>
<text text-anchor="middle" x="610.207" y="-258.774" font-family="Times,serif" font-size="14.00" fill="#808080">Ayumi</text>
</g>
<!-- Hikaru&#45;&#45;Ayumi -->
<g id="edge9" class="edge"><title>Hikaru&#45;&#45;Ayumi</title>
<path fill="none" stroke="deeppink" stroke-width="2" d="M538.734,-264.374C549.817,-264.374 561.94,-264.374 573.004,-264.374"/>
</g>
<!-- Miaka -->
<g id="node4" class="node"><title>Miaka</title>
<ellipse fill="none" stroke="black" cx="215.011" cy="-264.374" rx="35.5596" ry="18"/>
<text text-anchor="middle" x="215.011" y="-258.774" font-family="Times,serif" font-size="14.00">Miaka</text>
</g>
<!-- Miaka&#45;&#45;Sumire -->
<g id="edge29" class="edge"><title>Miaka&#45;&#45;Sumire</title>
<path fill="none" stroke="deeppink" stroke-width="2" d="M238.804,-250.637C279.958,-226.877 363.993,-178.359 405.448,-154.425"/>
</g>
<!-- Miaka&#45;&#45;Yuna -->
<g id="edge27" class="edge"><title>Miaka&#45;&#45;Yuna</title>
<path fill="none" stroke="purple" stroke-width="2" d="M225.111,-281.868C238.749,-305.489 262.906,-347.331 276.517,-370.906"/>
</g>
<!-- Miaka&#39;s parents -->
<g id="node28" class="node"><title>Miaka&#39;s parents</title>
<ellipse fill="none" stroke="#808080" cx="71.5056" cy="-264.374" rx="71.2583" ry="18"/>
<text text-anchor="middle" x="71.5056" y="-258.774" font-family="Times,serif" font-size="14.00" fill="#808080">Miaka&#39;s parents</text>
</g>
<!-- Miaka&#45;&#45;Miaka&#39;s parents -->
<g id="edge31" class="edge"><title>Miaka&#45;&#45;Miaka&#39;s parents</title>
<path fill="none" stroke="deeppink" stroke-width="2" d="M179.538,-264.374C168.416,-264.374 155.716,-264.374 143.025,-264.374"/>
</g>
<!-- Sumire&#45;&#45;Hikaru -->
<g id="edge13" class="edge"><title>Sumire&#45;&#45;Hikaru</title>
<path fill="none" stroke="deeppink" stroke-width="2" d="M439.777,-157.931C453.414,-181.552 477.571,-223.394 491.182,-246.969"/>
</g>
<!-- Kazuo -->
<g id="node18" class="node"><title>Kazuo</title>
<ellipse fill="none" stroke="#808080" cx="483.796" cy="-46.6985" rx="36.3605" ry="18"/>
<text text-anchor="middle" x="483.796" y="-41.0985" font-family="Times,serif" font-size="14.00" fill="#808080">Kazuo</text>
</g>
<!-- Sumire&#45;&#45;Kazuo -->
<g id="edge15" class="edge"><title>Sumire&#45;&#45;Kazuo</title>
<path fill="none" stroke="deeppink" stroke-width="2" d="M439.856,-122.805C449.532,-106.046 464.002,-80.9837 473.662,-64.2509"/>
</g>
<!-- Yui -->
<g id="node6" class="node"><title>Yui</title>
<ellipse fill="none" stroke="black" cx="429.676" cy="-388.311" rx="27" ry="18"/>
<text text-anchor="middle" x="429.676" y="-382.711" font-family="Times,serif" font-size="14.00">Yui</text>
</g>
<!-- Yui&#45;&#45;Hikaru -->
<g id="edge19" class="edge"><title>Yui&#45;&#45;Hikaru</title>
<path fill="none" stroke="red" stroke-width="2" d="M439.476,-371.338C453.025,-347.869 477.36,-305.72 491.089,-281.941"/>
</g>
<!-- Yui&#45;&#45;Sumire -->
<g id="edge21" class="edge"><title>Yui&#45;&#45;Sumire</title>
<path fill="none" stroke="purple" stroke-dasharray="1,5" d="M429.676,-370.084C429.676,-324.245 429.676,-204.559 429.676,-158.69"/>
</g>
<!-- Ami -->
<g id="node20" class="node"><title>Ami</title>
<ellipse fill="none" stroke="#808080" cx="479.779" cy="-475.091" rx="28.3082" ry="18"/>
<text text-anchor="middle" x="479.779" y="-469.491" font-family="Times,serif" font-size="14.00" fill="#808080">Ami</text>
</g>
<!-- Yui&#45;&#45;Ami -->
<g id="edge17" class="edge"><title>Yui&#45;&#45;Ami</title>
<path fill="none" stroke="deeppink" stroke-width="2" d="M439.575,-405.456C448.359,-420.669 461.123,-442.779 469.901,-457.982"/>
</g>
<!-- Yuna&#45;&#45;Aoi -->
<g id="edge23" class="edge"><title>Yuna&#45;&#45;Aoi</title>
<path fill="none" stroke="purple" stroke-width="2" d="M286.566,-370.084C286.566,-324.245 286.566,-204.559 286.566,-158.69"/>
</g>
<!-- Yuna&#45;&#45;Yui -->
<g id="edge25" class="edge"><title>Yuna&#45;&#45;Yui</title>
<path fill="none" stroke="deeppink" stroke-width="2" d="M317.267,-388.311C342.563,-388.311 378.103,-388.311 402.408,-388.311"/>
</g>
</g>
</svg>
