<?xml version="1.0" encoding="UTF-8" standalone="no"?>
<!DOCTYPE svg PUBLIC "-//W3C//DTD SVG 1.1//EN"
 "http://www.w3.org/Graphics/SVG/1.1/DTD/svg11.dtd">
<!-- Generated by graphviz version 2.28.0 (20121123.1724)
 -->
<!-- Title: _anonymous_0 Pages: 1 -->
<svg width="122pt" height="366pt"
 viewBox="0.00 0.00 122.00 366.00" xmlns="http://www.w3.org/2000/svg" xmlns:xlink="http://www.w3.org/1999/xlink">
<g id="graph1" class="graph" transform="scale(1 1) rotate(0) translate(4 362)">
<title>_anonymous_0</title>
<polygon fill="white" stroke="white" points="-4,5 -4,-362 119,-362 119,5 -4,5"/>
<g id="graph2" class="cluster"><title>cluster_strain</title>
<polygon fill="none" stroke="none" points="8,-8 8,-194 106,-194 106,-8 8,-8"/>
<text text-anchor="middle" x="57" y="-178.8" font-family="Times,serif" font-weight="bold" font-size="14.00">Strain</text>
</g>
<g id="graph3" class="cluster"><title>cluster_attr</title>
<polygon fill="none" stroke="none" points="8,-202 8,-350 106,-350 106,-202 8,-202"/>
<text text-anchor="middle" x="57" y="-334.8" font-family="Times,serif" font-weight="bold" font-size="14.00">Attribute</text>
</g>
<!-- A -->
<g id="node2" class="node"><title>A</title>
<ellipse fill="black" stroke="black" cx="18" cy="-148" rx="1.8" ry="1.8"/>
</g>
<!-- B -->
<g id="node4" class="node"><title>B</title>
<ellipse fill="black" stroke="black" cx="96" cy="-148" rx="1.8" ry="1.8"/>
</g>
<!-- A&#45;&#45;B -->
<g id="edge3" class="edge"><title>A&#45;&#45;B</title>
<path fill="none" stroke="black" stroke-width="2" d="M19.8535,-148C27.5508,-148 84.9197,-148 93.8366,-148"/>
<text text-anchor="middle" x="57" y="-151.8" font-family="Times,serif" font-size="14.00">0</text>
</g>
<!-- C -->
<g id="node5" class="node"><title>C</title>
<ellipse fill="black" stroke="black" cx="18" cy="-110" rx="1.8" ry="1.8"/>
</g>
<!-- D -->
<g id="node7" class="node"><title>D</title>
<ellipse fill="black" stroke="black" cx="96" cy="-110" rx="1.8" ry="1.8"/>
</g>
<!-- C&#45;&#45;D -->
<g id="edge5" class="edge"><title>C&#45;&#45;D</title>
<path fill="none" stroke="black" d="M19.8535,-110C27.5508,-110 84.9197,-110 93.8366,-110"/>
<text text-anchor="middle" x="57" y="-113.8" font-family="Times,serif" font-size="14.00">1</text>
</g>
<!-- E -->
<g id="node8" class="node"><title>E</title>
<ellipse fill="black" stroke="black" cx="18" cy="-72" rx="1.8" ry="1.8"/>
</g>
<!-- F -->
<g id="node10" class="node"><title>F</title>
<ellipse fill="black" stroke="black" cx="96" cy="-72" rx="1.8" ry="1.8"/>
</g>
<!-- E&#45;&#45;F -->
<g id="edge7" class="edge"><title>E&#45;&#45;F</title>
<path fill="none" stroke="black" stroke-dasharray="5,2" d="M19.8535,-72C27.5508,-72 84.9197,-72 93.8366,-72"/>
<text text-anchor="middle" x="57" y="-75.8" font-family="Times,serif" font-size="14.00">2</text>
</g>
<!-- G -->
<g id="node11" class="node"><title>G</title>
<ellipse fill="black" stroke="black" cx="18" cy="-34" rx="1.8" ry="1.8"/>
</g>
<!-- H -->
<g id="node13" class="node"><title>H</title>
<ellipse fill="black" stroke="black" cx="96" cy="-34" rx="1.8" ry="1.8"/>
</g>
<!-- G&#45;&#45;H -->
<g id="edge9" class="edge"><title>G&#45;&#45;H</title>
<path fill="none" stroke="black" stroke-dasharray="1,5" d="M19.8535,-34C27.5508,-34 84.9197,-34 93.8366,-34"/>
<text text-anchor="middle" x="57" y="-37.8" font-family="Times,serif" font-size="14.00">3</text>
</g>
<!-- I -->
<g id="node15" class="node"><title>I</title>
<ellipse fill="black" stroke="black" cx="18" cy="-304" rx="1.8" ry="1.8"/>
</g>
<!-- J -->
<g id="node17" class="node"><title>J</title>
<ellipse fill="black" stroke="black" cx="96" cy="-304" rx="1.8" ry="1.8"/>
</g>
<!-- I&#45;&#45;J -->
<g id="edge12" class="edge"><title>I&#45;&#45;J</title>
<path fill="none" stroke="purple" stroke-width="2" d="M19.8535,-304C27.5508,-304 84.9197,-304 93.8366,-304"/>
<text text-anchor="middle" x="57" y="-307.8" font-family="Times,serif" font-size="14.00">Magic</text>
</g>
<!-- K -->
<g id="node18" class="node"><title>K</title>
<ellipse fill="black" stroke="black" cx="18" cy="-266" rx="1.8" ry="1.8"/>
</g>
<!-- L -->
<g id="node20" class="node"><title>L</title>
<ellipse fill="black" stroke="black" cx="96" cy="-266" rx="1.8" ry="1.8"/>
</g>
<!-- K&#45;&#45;L -->
<g id="edge14" class="edge"><title>K&#45;&#45;L</title>
<path fill="none" stroke="deeppink" stroke-width="2" d="M19.8535,-266C27.5508,-266 84.9197,-266 93.8366,-266"/>
<text text-anchor="middle" x="57" y="-269.8" font-family="Times,serif" font-size="14.00">Heart</text>
</g>
<!-- M -->
<g id="node21" class="node"><title>M</title>
<ellipse fill="black" stroke="black" cx="18" cy="-228" rx="1.8" ry="1.8"/>
</g>
<!-- N -->
<g id="node23" class="node"><title>N</title>
<ellipse fill="black" stroke="black" cx="96" cy="-228" rx="1.8" ry="1.8"/>
</g>
<!-- M&#45;&#45;N -->
<g id="edge16" class="edge"><title>M&#45;&#45;N</title>
<path fill="none" stroke="red" stroke-width="2" d="M19.8535,-228C27.5508,-228 84.9197,-228 93.8366,-228"/>
<text text-anchor="middle" x="57" y="-231.8" font-family="Times,serif" font-size="14.00">Fury</text>
</g>
</g>
</svg>
