<?xml version="1.0" encoding="UTF-8" standalone="no"?>
<!DOCTYPE svg PUBLIC "-//W3C//DTD SVG 1.1//EN"
 "http://www.w3.org/Graphics/SVG/1.1/DTD/svg11.dtd">
<!-- Generated by graphviz version 2.28.0 (20130225.0132)
 -->
<!-- Title: _anonymous_0 Pages: 1 -->
<svg width="208pt" height="413pt"
 viewBox="0.00 0.00 208.00 413.00" xmlns="http://www.w3.org/2000/svg" xmlns:xlink="http://www.w3.org/1999/xlink">
<g id="graph1" class="graph" transform="scale(1 1) rotate(0) translate(4 409)">
<title>_anonymous_0</title>
<polygon fill="white" stroke="white" points="-4,5 -4,-409 205,-409 205,5 -4,5"/>
<g id="graph2" class="cluster"><title>cluster_strain</title>
<polygon fill="none" stroke="none" points="25,-8 25,-204 176,-204 176,-8 25,-8"/>
<text text-anchor="middle" x="100.5" y="-186" font-family="Times,serif" font-weight="bold" font-size="14.00">Strain per relationship</text>
</g>
<g id="graph3" class="cluster"><title>cluster_capacity</title>
<polygon fill="none" stroke="none" points="8,-212 8,-397 192,-397 192,-212 8,-212"/>
<text text-anchor="middle" x="100" y="-379" font-family="Times,serif" font-weight="bold" font-size="14.00">Spare Strain capacity</text>
</g>
<!-- A -->
<g id="node2" class="node"><title>A</title>
<ellipse fill="black" stroke="black" cx="47" cy="-154" rx="1.8" ry="1.8"/>
</g>
<!-- B -->
<g id="node4" class="node"><title>B</title>
<ellipse fill="black" stroke="black" cx="153" cy="-154" rx="1.8" ry="1.8"/>
</g>
<!-- A&#45;&#45;B -->
<g id="edge3" class="edge"><title>A&#45;&#45;B</title>
<path fill="none" stroke="black" d="M49.168,-154C59.8796,-154 140.887,-154 150.971,-154"/>
<text text-anchor="middle" x="100" y="-156.8" font-family="Times,serif" font-size="14.00">0</text>
</g>
<!-- C -->
<g id="node5" class="node"><title>C</title>
<ellipse fill="black" stroke="black" cx="47" cy="-114" rx="1.8" ry="1.8"/>
</g>
<!-- D -->
<g id="node7" class="node"><title>D</title>
<ellipse fill="black" stroke="black" cx="153" cy="-114" rx="1.8" ry="1.8"/>
</g>
<!-- C&#45;&#45;D -->
<g id="edge5" class="edge"><title>C&#45;&#45;D</title>
<path fill="none" stroke="red" d="M49.168,-114C59.8796,-114 140.887,-114 150.971,-114"/>
<text text-anchor="middle" x="100" y="-116.8" font-family="Times,serif" font-size="14.00">1</text>
</g>
<!-- E -->
<g id="node8" class="node"><title>E</title>
<ellipse fill="black" stroke="black" cx="47" cy="-74" rx="1.8" ry="1.8"/>
</g>
<!-- F -->
<g id="node10" class="node"><title>F</title>
<ellipse fill="black" stroke="black" cx="153" cy="-74" rx="1.8" ry="1.8"/>
</g>
<!-- E&#45;&#45;F -->
<g id="edge7" class="edge"><title>E&#45;&#45;F</title>
<path fill="none" stroke="red" stroke-dasharray="5,2" d="M49.168,-74C59.8796,-74 140.887,-74 150.971,-74"/>
<text text-anchor="middle" x="100" y="-76.8" font-family="Times,serif" font-size="14.00">2</text>
</g>
<!-- G -->
<g id="node11" class="node"><title>G</title>
<ellipse fill="black" stroke="black" cx="47" cy="-34" rx="1.8" ry="1.8"/>
</g>
<!-- H -->
<g id="node13" class="node"><title>H</title>
<ellipse fill="black" stroke="black" cx="153" cy="-34" rx="1.8" ry="1.8"/>
</g>
<!-- G&#45;&#45;H -->
<g id="edge9" class="edge"><title>G&#45;&#45;H</title>
<path fill="none" stroke="red" stroke-dasharray="1,5" d="M49.168,-34C59.8796,-34 140.887,-34 150.971,-34"/>
<text text-anchor="middle" x="100" y="-36.8" font-family="Times,serif" font-size="14.00">3</text>
</g>
<!-- 7+ -->
<g id="node15" class="node"><title>7+</title>
<ellipse fill="none" stroke="black" cx="47" cy="-346" rx="27" ry="18"/>
<text text-anchor="middle" x="47" y="-340.4" font-family="Times,serif" font-size="14.00">7+</text>
</g>
<!-- 4 – 6 -->
<g id="node16" class="node"><title>4 – 6</title>
<ellipse fill="none" stroke="red" cx="153" cy="-346" rx="30.2015" ry="18"/>
<text text-anchor="middle" x="153" y="-340.4" font-family="Times,serif" font-size="14.00">4 – 6</text>
</g>
<!-- 7+&#45;&#45;4 – 6 -->
<g id="edge12" class="edge"><title>7+&#45;&#45;4 – 6</title>
<path fill="none" stroke="none" d="M74.2436,-346C88.9261,-346 107.274,-346 122.459,-346"/>
</g>
<!-- 1 – 3 -->
<g id="node17" class="node"><title>1 – 3</title>
<ellipse fill="none" stroke="red" stroke-dasharray="5,2" cx="47" cy="-292" rx="30.2015" ry="18"/>
<text text-anchor="middle" x="47" y="-286.4" font-family="Times,serif" font-size="14.00">1 – 3</text>
</g>
<!-- 0 -->
<g id="node18" class="node"><title>0</title>
<ellipse fill="none" stroke="red" stroke-dasharray="1,5" cx="153" cy="-292" rx="27" ry="18"/>
<text text-anchor="middle" x="153" y="-286.4" font-family="Times,serif" font-size="14.00">0</text>
</g>
<!-- 1 – 3&#45;&#45;0 -->
<g id="edge14" class="edge"><title>1 – 3&#45;&#45;0</title>
<path fill="none" stroke="none" d="M77.524,-292C92.7774,-292 111.226,-292 125.945,-292"/>
</g>
<!-- x -->
</g>
</svg>
