<?xml version="1.0" encoding="UTF-8" standalone="no"?>
<!DOCTYPE svg PUBLIC "-//W3C//DTD SVG 1.1//EN"
 "http://www.w3.org/Graphics/SVG/1.1/DTD/svg11.dtd">
<!-- Generated by graphviz version 2.28.0 (20121123.1724)
 -->
<!-- Title: _anonymous_0 Pages: 1 -->
<svg width="519pt" height="465pt"
 viewBox="0.00 0.00 519.16 465.36" xmlns="http://www.w3.org/2000/svg" xmlns:xlink="http://www.w3.org/1999/xlink">
<g id="graph1" class="graph" transform="scale(1 1) rotate(0) translate(4 461.363)">
<title>_anonymous_0</title>
<polygon fill="white" stroke="white" points="-4,5 -4,-461.363 516.163,-461.363 516.163,5 -4,5"/>
<!-- Aoi -->
<g id="node2" class="node"><title>Aoi</title>
<ellipse fill="none" stroke="black" cx="151.015" cy="-162.84" rx="27" ry="18"/>
<text text-anchor="middle" x="151.015" y="-159.14" font-family="Times,serif" font-size="14.00">Aoi</text>
</g>
<!-- Sumire -->
<g id="node4" class="node"><title>Sumire</title>
<ellipse fill="none" stroke="black" cx="283.308" cy="-119.855" rx="38.0212" ry="18"/>
<text text-anchor="middle" x="283.308" y="-116.155" font-family="Times,serif" font-size="14.00">Sumire</text>
</g>
<!-- Aoi&#45;&#45;Sumire -->
<g id="edge7" class="edge"><title>Aoi&#45;&#45;Sumire</title>
<path fill="none" stroke="purple" stroke-width="2" d="M175.589,-154.855C196.959,-147.912 228.066,-137.804 251.364,-130.234"/>
</g>
<!-- Rie -->
<g id="node8" class="node"><title>Rie</title>
<ellipse fill="none" stroke="#808080" cx="27" cy="-164.564" rx="27" ry="18"/>
<text text-anchor="middle" x="27" y="-160.864" font-family="Times,serif" font-size="14.00" fill="#808080">Rie</text>
</g>
<!-- Aoi&#45;&#45;Rie -->
<g id="edge3" class="edge"><title>Aoi&#45;&#45;Rie</title>
<path fill="none" stroke="deeppink" stroke-width="2" d="M123.8,-163.218C103.122,-163.506 74.8138,-163.899 54.1522,-164.187"/>
</g>
<!-- Setsuna -->
<g id="node10" class="node"><title>Setsuna</title>
<ellipse fill="none" stroke="#808080" cx="104.198" cy="-51.9231" rx="39.4691" ry="18"/>
<text text-anchor="middle" x="104.198" y="-48.2231" font-family="Times,serif" font-size="14.00" fill="#808080">Setsuna</text>
</g>
<!-- Aoi&#45;&#45;Setsuna -->
<g id="edge5" class="edge"><title>Aoi&#45;&#45;Setsuna</title>
<path fill="none" stroke="red" stroke-width="2" d="M143.7,-145.509C135.008,-124.915 120.577,-90.7264 111.772,-69.8671"/>
</g>
<!-- Hikaru -->
<g id="node3" class="node"><title>Hikaru</title>
<ellipse fill="none" stroke="black" cx="365.07" cy="-232.39" rx="37.0701" ry="18"/>
<text text-anchor="middle" x="365.07" y="-228.69" font-family="Times,serif" font-size="14.00">Hikaru</text>
</g>
<!-- Yuna -->
<g id="node6" class="node"><title>Yuna</title>
<ellipse fill="none" stroke="black" cx="151.015" cy="-301.941" rx="30.3206" ry="18"/>
<text text-anchor="middle" x="151.015" y="-298.241" font-family="Times,serif" font-size="14.00">Yuna</text>
</g>
<!-- Hikaru&#45;&#45;Yuna -->
<g id="edge11" class="edge"><title>Hikaru&#45;&#45;Yuna</title>
<path fill="none" stroke="deeppink" stroke-width="2" d="M333.944,-242.503C291.854,-256.179 217.495,-280.34 177.781,-293.244"/>
</g>
<!-- Ayumi -->
<g id="node13" class="node"><title>Ayumi</title>
<ellipse fill="none" stroke="#808080" cx="474.116" cy="-232.39" rx="37.0701" ry="18"/>
<text text-anchor="middle" x="474.116" y="-228.69" font-family="Times,serif" font-size="14.00" fill="#808080">Ayumi</text>
</g>
<!-- Hikaru&#45;&#45;Ayumi -->
<g id="edge9" class="edge"><title>Hikaru&#45;&#45;Ayumi</title>
<path fill="none" stroke="deeppink" stroke-width="2" d="M402.292,-232.39C413.522,-232.39 425.843,-232.39 437.061,-232.39"/>
</g>
<!-- Sumire&#45;&#45;Hikaru -->
<g id="edge13" class="edge"><title>Sumire&#45;&#45;Hikaru</title>
<path fill="none" stroke="deeppink" stroke-width="2" d="M295.726,-136.947C311.093,-158.098 337.114,-193.912 352.535,-215.138"/>
</g>
<!-- Kazuo -->
<g id="node17" class="node"><title>Kazuo</title>
<ellipse fill="none" stroke="#808080" cx="316.403" cy="-18" rx="35.1455" ry="18"/>
<text text-anchor="middle" x="316.403" y="-14.3" font-family="Times,serif" font-size="14.00" fill="#808080">Kazuo</text>
</g>
<!-- Sumire&#45;&#45;Kazuo -->
<g id="edge15" class="edge"><title>Sumire&#45;&#45;Kazuo</title>
<path fill="none" stroke="deeppink" stroke-width="2" d="M289.225,-101.646C295.249,-83.1059 304.532,-54.5345 310.537,-36.052"/>
</g>
<!-- Yui -->
<g id="node5" class="node"><title>Yui</title>
<ellipse fill="none" stroke="black" cx="283.308" cy="-344.925" rx="27" ry="18"/>
<text text-anchor="middle" x="283.308" y="-341.225" font-family="Times,serif" font-size="14.00">Yui</text>
</g>
<!-- Yui&#45;&#45;Hikaru -->
<g id="edge19" class="edge"><title>Yui&#45;&#45;Hikaru</title>
<path fill="none" stroke="red" stroke-width="2" d="M295.372,-328.32C310.742,-307.166 337.168,-270.794 352.688,-249.432"/>
</g>
<!-- Yui&#45;&#45;Sumire -->
<g id="edge21" class="edge"><title>Yui&#45;&#45;Sumire</title>
<path fill="none" stroke="purple" stroke-dasharray="1,5" d="M283.308,-326.887C283.308,-284.745 283.308,-180.206 283.308,-137.979"/>
</g>
<!-- Ami -->
<g id="node19" class="node"><title>Ami</title>
<ellipse fill="none" stroke="#808080" cx="313.993" cy="-439.363" rx="26.949" ry="18"/>
<text text-anchor="middle" x="313.993" y="-435.663" font-family="Times,serif" font-size="14.00" fill="#808080">Ami</text>
</g>
<!-- Yui&#45;&#45;Ami -->
<g id="edge17" class="edge"><title>Yui&#45;&#45;Ami</title>
<path fill="none" stroke="deeppink" stroke-width="2" d="M289.08,-362.688C294.566,-379.572 302.77,-404.822 308.247,-421.679"/>
</g>
<!-- Yuna&#45;&#45;Aoi -->
<g id="edge23" class="edge"><title>Yuna&#45;&#45;Aoi</title>
<path fill="none" stroke="purple" stroke-width="2" d="M151.015,-283.756C151.015,-257.097 151.015,-207.69 151.015,-181.029"/>
</g>
<!-- Yuna&#45;&#45;Yui -->
<g id="edge25" class="edge"><title>Yuna&#45;&#45;Yui</title>
<path fill="none" stroke="deeppink" stroke-width="2" d="M177.787,-310.639C201.494,-318.342 235.811,-329.492 258.807,-336.964"/>
</g>
</g>
</svg>
