<?xml version="1.0" encoding="UTF-8" standalone="no"?>
<!DOCTYPE svg PUBLIC "-//W3C//DTD SVG 1.1//EN"
 "http://www.w3.org/Graphics/SVG/1.1/DTD/svg11.dtd">
<!-- Generated by graphviz version 2.28.0 (20130225.0132)
 -->
<!-- Title: _anonymous_0 Pages: 1 -->
<svg width="485pt" height="447pt"
 viewBox="0.00 0.00 484.97 447.41" xmlns="http://www.w3.org/2000/svg" xmlns:xlink="http://www.w3.org/1999/xlink">
<g id="graph1" class="graph" transform="scale(1 1) rotate(0) translate(4 443.408)">
<title>_anonymous_0</title>
<polygon fill="white" stroke="white" points="-4,5 -4,-443.408 481.968,-443.408 481.968,5 -4,5"/>
<!-- Aoi -->
<g id="node1" class="node"><title>Aoi</title>
<ellipse fill="none" stroke="black" cx="380.038" cy="-77.0778" rx="27" ry="18"/>
<text text-anchor="middle" x="380.038" y="-71.4778" font-family="Times,serif" font-size="14.00">Aoi</text>
</g>
<!-- Hikaru -->
<g id="node2" class="node"><title>Hikaru</title>
<ellipse fill="none" stroke="black" cx="439.115" cy="-219.704" rx="37.2809" ry="18"/>
<text text-anchor="middle" x="439.115" y="-214.104" font-family="Times,serif" font-size="14.00">Hikaru</text>
</g>
<!-- Aoi&#45;&#45;Hikaru -->
<g id="edge2" class="edge"><title>Aoi&#45;&#45;Hikaru</title>
<path fill="none" stroke="black" d="M387.282,-94.5666C398.559,-121.792 420.2,-174.039 431.626,-201.622"/>
</g>
<!-- Makoto -->
<g id="node3" class="node"><title>Makoto</title>
<ellipse fill="none" stroke="red" cx="94.7848" cy="-77.0778" rx="41.1166" ry="18"/>
<text text-anchor="middle" x="94.7848" y="-71.4778" font-family="Times,serif" font-size="14.00">Makoto</text>
</g>
<!-- Aoi&#45;&#45;Makoto -->
<g id="edge4" class="edge"><title>Aoi&#45;&#45;Makoto</title>
<path fill="none" stroke="black" d="M352.944,-77.0778C302.879,-77.0778 195.588,-77.0778 136.296,-77.0778"/>
</g>
<!-- Miaka -->
<g id="node4" class="node"><title>Miaka</title>
<ellipse fill="none" stroke="black" cx="35.707" cy="-219.704" rx="35.5596" ry="18"/>
<text text-anchor="middle" x="35.707" y="-214.104" font-family="Times,serif" font-size="14.00">Miaka</text>
</g>
<!-- Aoi&#45;&#45;Miaka -->
<g id="edge6" class="edge"><title>Aoi&#45;&#45;Miaka</title>
<path fill="none" stroke="black" d="M356.91,-86.6574C295.691,-112.015 129.589,-180.817 63.4366,-208.218"/>
</g>
<!-- Snezana -->
<g id="node5" class="node"><title>Snezana</title>
<ellipse fill="none" stroke="black" cx="94.7848" cy="-362.331" rx="43.3141" ry="18"/>
<text text-anchor="middle" x="94.7848" y="-356.731" font-family="Times,serif" font-size="14.00">Snezana</text>
</g>
<!-- Aoi&#45;&#45;Snezana -->
<g id="edge8" class="edge"><title>Aoi&#45;&#45;Snezana</title>
<path fill="none" stroke="black" d="M364.701,-92.4142C315.635,-141.481 162.728,-294.387 111.616,-345.499"/>
</g>
<!-- Sumire -->
<g id="node6" class="node"><title>Sumire</title>
<ellipse fill="none" stroke="red" cx="237.411" cy="-421.408" rx="38.3993" ry="18"/>
<text text-anchor="middle" x="237.411" y="-415.808" font-family="Times,serif" font-size="14.00">Sumire</text>
</g>
<!-- Aoi&#45;&#45;Sumire -->
<g id="edge10" class="edge"><title>Aoi&#45;&#45;Sumire</title>
<path fill="none" stroke="red" d="M372.769,-94.6266C348.359,-153.557 269.477,-343.994 244.836,-403.482"/>
</g>
<!-- Yui -->
<g id="node7" class="node"><title>Yui</title>
<ellipse fill="none" stroke="black" cx="380.038" cy="-362.331" rx="27" ry="18"/>
<text text-anchor="middle" x="380.038" y="-356.731" font-family="Times,serif" font-size="14.00">Yui</text>
</g>
<!-- Aoi&#45;&#45;Yui -->
<g id="edge12" class="edge"><title>Aoi&#45;&#45;Yui</title>
<path fill="none" stroke="black" d="M380.038,-95.3556C380.038,-146.878 380.038,-292.869 380.038,-344.205"/>
</g>
<!-- Yuna -->
<g id="node8" class="node"><title>Yuna</title>
<ellipse fill="none" stroke="red" cx="237.411" cy="-18" rx="30.3269" ry="18"/>
<text text-anchor="middle" x="237.411" y="-12.4" font-family="Times,serif" font-size="14.00">Yuna</text>
</g>
<!-- Aoi&#45;&#45;Yuna -->
<g id="edge14" class="edge"><title>Aoi&#45;&#45;Yuna</title>
<path fill="none" stroke="black" d="M356.805,-67.4544C331.072,-56.7955 289.705,-39.6607 263.045,-28.6179"/>
</g>
<!-- Hikaru&#45;&#45;Makoto -->
<g id="edge16" class="edge"><title>Hikaru&#45;&#45;Makoto</title>
<path fill="none" stroke="black" d="M410.644,-207.911C346.354,-181.281 190.444,-116.701 124.755,-89.492"/>
</g>
<!-- Hikaru&#45;&#45;Miaka -->
<g id="edge18" class="edge"><title>Hikaru&#45;&#45;Miaka</title>
<path fill="none" stroke="black" d="M401.526,-219.704C323.971,-219.704 147.148,-219.704 71.3164,-219.704"/>
</g>
<!-- Hikaru&#45;&#45;Snezana -->
<g id="edge20" class="edge"><title>Hikaru&#45;&#45;Snezana</title>
<path fill="none" stroke="black" d="M410.644,-231.497C346.677,-257.993 192.004,-322.061 125.75,-349.504"/>
</g>
<!-- Hikaru&#45;&#45;Sumire -->
<g id="edge22" class="edge"><title>Hikaru&#45;&#45;Sumire</title>
<path fill="none" stroke="black" d="M422.609,-236.21C384.692,-274.128 291.727,-367.093 253.863,-404.957"/>
</g>
<!-- Hikaru&#45;&#45;Yui -->
<g id="edge24" class="edge"><title>Hikaru&#45;&#45;Yui</title>
<path fill="none" stroke="black" d="M431.752,-237.479C420.37,-264.96 398.634,-317.435 387.307,-344.779"/>
</g>
<!-- Hikaru&#45;&#45;Yuna -->
<g id="edge26" class="edge"><title>Hikaru&#45;&#45;Yuna</title>
<path fill="none" stroke="black" d="M422.609,-203.198C384.409,-164.998 290.34,-70.9285 253.026,-33.6151"/>
</g>
<!-- Makoto&#45;&#45;Miaka -->
<g id="edge28" class="edge"><title>Makoto&#45;&#45;Miaka</title>
<path fill="none" stroke="black" d="M87.422,-94.8531C76.1011,-122.184 54.5391,-174.239 43.1626,-201.705"/>
</g>
<!-- Makoto&#45;&#45;Snezana -->
<g id="edge30" class="edge"><title>Makoto&#45;&#45;Snezana</title>
<path fill="none" stroke="black" d="M94.7848,-95.3556C94.7848,-146.878 94.7848,-292.869 94.7848,-344.205"/>
</g>
<!-- Makoto&#45;&#45;Sumire -->
<g id="edge32" class="edge"><title>Makoto&#45;&#45;Sumire</title>
<path fill="none" stroke="black" d="M102.252,-95.1057C126.899,-154.607 205.479,-344.318 230.018,-403.559"/>
</g>
<!-- Makoto&#45;&#45;Yui -->
<g id="edge34" class="edge"><title>Makoto&#45;&#45;Yui</title>
<path fill="none" stroke="black" d="M111.354,-93.6471C162.246,-144.539 315.807,-298.1 364.824,-347.117"/>
</g>
<!-- Makoto&#45;&#45;Yuna -->
<g id="edge36" class="edge"><title>Makoto&#45;&#45;Yuna</title>
<path fill="none" stroke="red" stroke-dasharray="1,5" d="M124.684,-64.6931C150.66,-53.9336 187.854,-38.5272 212.311,-28.3968"/>
</g>
<!-- Miaka&#45;&#45;Snezana -->
<g id="edge38" class="edge"><title>Miaka&#45;&#45;Snezana</title>
<path fill="none" stroke="black" d="M43.0698,-237.479C54.3906,-264.81 75.9526,-316.866 87.3292,-344.331"/>
</g>
<!-- Miaka&#45;&#45;Sumire -->
<g id="edge40" class="edge"><title>Miaka&#45;&#45;Sumire</title>
<path fill="none" stroke="black" d="M51.8723,-235.869C89.5462,-273.543 182.862,-366.859 220.887,-404.884"/>
</g>
<!-- Miaka&#45;&#45;Yui -->
<g id="edge42" class="edge"><title>Miaka&#45;&#45;Yui</title>
<path fill="none" stroke="black" d="M63.3029,-231.135C129.372,-258.501 295.684,-327.39 356.929,-352.759"/>
</g>
<!-- Miaka&#45;&#45;Yuna -->
<g id="edge44" class="edge"><title>Miaka&#45;&#45;Yuna</title>
<path fill="none" stroke="black" d="M51.8723,-203.539C89.8267,-165.584 184.255,-71.1566 221.727,-33.6844"/>
</g>
<!-- Snezana&#45;&#45;Sumire -->
<g id="edge46" class="edge"><title>Snezana&#45;&#45;Sumire</title>
<path fill="none" stroke="black" d="M125.733,-375.15C150.311,-385.33 184.429,-399.462 208.468,-409.42"/>
</g>
<!-- Snezana&#45;&#45;Yui -->
<g id="edge48" class="edge"><title>Snezana&#45;&#45;Yui</title>
<path fill="none" stroke="black" d="M138.109,-362.331C197.646,-362.331 303.013,-362.331 352.682,-362.331"/>
</g>
<!-- Snezana&#45;&#45;Yuna -->
<g id="edge50" class="edge"><title>Snezana&#45;&#45;Yuna</title>
<path fill="none" stroke="black" d="M102.252,-344.303C126.899,-284.801 205.479,-95.09 230.018,-35.8494"/>
</g>
<!-- Sumire&#45;&#45;Yui -->
<g id="edge52" class="edge"><title>Sumire&#45;&#45;Yui</title>
<path fill="none" stroke="black" d="M266.274,-409.453C292.972,-398.394 332.152,-382.165 356.864,-371.929"/>
</g>
<!-- Sumire&#45;&#45;Yuna -->
<g id="edge54" class="edge"><title>Sumire&#45;&#45;Yuna</title>
<path fill="none" stroke="red" d="M237.411,-403.291C237.411,-336.293 237.411,-102.983 237.411,-36.0674"/>
</g>
<!-- Yui&#45;&#45;Yuna -->
<g id="edge56" class="edge"><title>Yui&#45;&#45;Yuna</title>
<path fill="none" stroke="black" d="M372.769,-344.782C348.302,-285.715 269.11,-94.5278 244.665,-35.5135"/>
</g>
</g>
</svg>
